# xmcd
#
# Track frame offsets: 
#        150
#        15651
#        30839
#
# Disc length: 542 seconds
#
# Revision: 0
# Processed by: cddbd v1.5.2PL0 Copyright (c) Steve Scherf et al.
# Submitted via: ExactAudioCopy v0.95b4
#
DISCID=12021c03
DTITLE=Polytechnic - Cold Hearted Business CDS
DYEAR=2007
DGENRE=Indie
TTITLE0=Cold Hearted Business
TTITLE1=Penguin
TTITLE2=Let Me Down (Acoustic)
EXTD=
EXTT0=
EXTT1=
EXTT2=
PLAYORDER=
